<svg width="43" height="49" viewBox="0 0 43 49" fill="none" xmlns="http://www.w3.org/2000/svg">
<g clip-path="url(#clip0_45_458)">
<path d="M43 0.5H0V48.5H43V0.5Z" fill="white"/>
<path d="M17.7221 36.34C17.5071 36.34 17.2921 36.4924 17.2307 36.6752L16.2171 39.2047L16.1249 39.479L16.0328 39.1743L15.2649 36.7057V36.6752C15.2035 36.4619 14.9885 36.3095 14.7735 36.3095H13.5142C13.2378 36.34 12.9921 36.5533 12.9921 36.8276C12.9921 36.8886 13.0228 37.0105 13.0535 37.1019L13.2071 37.6809L12.5928 39.2352L12.5007 39.5095L12.4085 39.2352L11.6407 36.7667V36.7362C11.5792 36.5228 11.3642 36.3705 11.1492 36.3705H9.88994C9.61351 36.4009 9.3678 36.6143 9.3678 36.8886C9.3678 36.9495 9.39851 37.0714 9.42923 37.1628L11.3028 42.74C11.3642 42.9838 11.5792 43.1362 11.8249 43.1362C12.0707 43.1362 12.2549 42.9838 12.3164 42.7705L13.6371 39.4486L13.7292 39.1438L13.8214 39.4486L14.9271 42.74C14.9885 42.9838 15.2035 43.1362 15.4492 43.1362C15.6949 43.1362 15.8792 42.9838 15.9714 42.74L18.2135 37.0714C18.2442 37.0105 18.2749 36.919 18.2749 36.8581C18.2442 36.5838 18.0292 36.34 17.7221 36.34Z" fill="black"/>
<path d="M27.1514 36.34C26.9364 36.34 26.7214 36.4924 26.6599 36.6752L25.6464 39.2047L25.5542 39.479L25.4928 39.1743L24.6942 36.7057V36.6752C24.6328 36.4619 24.4178 36.3095 24.2028 36.3095H22.9435C22.6671 36.34 22.4521 36.5533 22.4521 36.8276C22.4521 36.8886 22.4828 37.0105 22.5135 37.1019L22.6671 37.62L22.0528 39.1743L21.9607 39.4486L21.8992 39.1743L21.1314 36.7057V36.6752C21.0699 36.4619 20.8549 36.3095 20.6399 36.3095H19.3807C19.1042 36.34 18.8585 36.5533 18.8585 36.8276C18.8585 36.8886 18.8892 37.0105 18.9199 37.1019L20.8242 42.679C20.8857 42.9228 21.1007 43.0752 21.3464 43.0752C21.5921 43.0752 21.7764 42.9228 21.8378 42.7095L23.1585 39.3876L23.2507 39.0828L23.3428 39.3876L24.4485 42.679C24.5099 42.9228 24.7249 43.0752 24.9707 43.0752C25.2164 43.0752 25.4314 42.9228 25.4928 42.679L27.7349 37.0105C27.7657 36.9495 27.7964 36.8581 27.7964 36.7971C27.6735 36.5838 27.4278 36.34 27.1514 36.34Z" fill="black"/>
<path d="M33.2636 36.3705H28.8407C28.595 36.3705 28.38 36.5838 28.38 36.8276V37.9247V42.6485C28.38 42.9228 28.595 43.1362 28.8714 43.1362H30.1307C30.4071 43.1362 30.6221 42.9228 30.6221 42.6485V39.9362C30.6221 39.9362 32.4036 39.9362 32.4343 39.9362C32.7107 39.9362 32.895 39.7228 32.895 39.4485C32.895 39.1743 32.68 38.9609 32.4036 38.9609H30.6221V37.4066H33.2943C33.5707 37.4066 33.7857 37.1628 33.7857 36.8885C33.7857 36.5838 33.54 36.3705 33.2636 36.3705Z" fill="black"/>
<path d="M26.4142 17.8105C27.2128 18.6943 27.3049 21.3457 29.3321 20.3095C30.5607 19.6695 30.5299 16.9876 28.9021 16.0428C27.5814 15.2809 26.8749 16.3171 26.4142 17.5666C26.3528 17.6581 26.3528 17.78 26.4142 17.8105Z" fill="black"/>
<path d="M23.2814 17.3838C22.4521 18.0848 21.8685 19.9743 20.3021 19.3343C19.0428 18.6943 18.92 16.2257 21.1007 15.0981C22.6057 14.3971 23.3735 15.7686 23.3735 17.2314C23.3735 17.2619 23.3121 17.3533 23.2814 17.3838Z" fill="black"/>
<path d="M25.3393 22.26C26.1686 22.1686 25.9843 21.4067 25.3393 21.2238C24.8171 21.041 23.9571 20.919 23.3428 20.9495C22.2678 20.98 22.2986 21.7724 22.8514 21.9248C23.2814 22.0771 23.5578 22.1076 23.8957 22.5952C24.2336 23.2048 24.1107 22.3819 25.3393 22.26Z" fill="black"/>
<path d="M29.3013 8.5152C30.3456 6.77806 32.1577 7.1133 33.0792 7.99711C34.0927 8.94187 34.2463 10.0085 33.847 10.7704C33.3249 11.7762 31.9735 13.0257 31.1135 11.8371C30.7142 11.319 29.9156 10.679 29.4549 10.4962C28.7792 10.1914 28.6563 9.58187 29.3013 8.5152Z" fill="black"/>
<path d="M25.4314 24.0581C24.9707 25.2467 22.6057 24.8505 22.5442 23.6924C22.5442 23.6314 22.6057 23.6619 22.6364 23.6619C23.6807 23.9057 24.6942 24.0276 25.3699 24.0276C25.3699 23.9971 25.4314 23.9971 25.4314 24.0581ZM33.4478 16.1343C33.3557 15.8295 33.2021 15.86 33.2021 16.1038C33.2942 19.2428 31.3899 22.6257 27.3357 22.6562C26.2914 22.6562 26.5985 24.3019 24.7249 23.479C23.3735 22.5648 22.575 24.3628 21.5921 22.4428C21.3771 21.8943 21.0699 21.6505 20.6399 21.559C16.6471 20.5533 15.3571 15.0981 18.8892 10.679C19.5957 11.1057 19.8414 11.1667 20.5785 10.4657C20.9778 10.1 21.6228 9.7038 21.9607 9.5819C22.8207 9.24666 23.2814 8.91142 22.5442 7.29618C21.5921 5.2238 19.6571 5.80285 18.7971 6.53428C17.8142 7.35713 17.1078 8.66761 18.3978 10.2219C14.8042 12.6295 14.1899 15.5857 14.2821 18.1457C14.3742 20.8886 13.6678 20.6448 14.5278 23.4181C14.6199 23.6619 14.4357 23.6619 14.3128 23.5705C10.5657 21.1933 8.53852 13.94 14.3742 9.94761C14.4971 9.82571 14.4664 9.67332 13.9749 9.94761C8.93781 12.599 8.44638 17.719 9.30638 21.1933C9.70566 22.8695 9.09138 23.1743 9.73638 25.3686C11.2414 29.94 12.5314 30.3057 14.3435 30.4581C17.63 30.4581 15.4185 28.66 15.5107 26.4048C15.5107 26.2829 15.6642 26.2219 15.7564 26.4657C17.5685 30.4886 18.8585 34.1762 23.6192 33.8409C26.3835 33.4752 24.8478 32.1343 24.6942 31.3419C22.6671 24.6676 27.5814 23.0828 26.1992 29.6048C25.2778 33.3228 28.1957 32.9571 30.2228 31.6162C32.3421 30.2448 34.9835 21.1324 33.4478 16.1343Z" fill="black"/>
<path d="M13.975 31.0981C13.3914 31.0981 12.9307 31.5857 12.9307 32.1343C12.9307 32.7133 13.3914 33.2009 13.975 33.2009C14.5585 33.2009 15.0192 32.7438 15.0192 32.1343C15.0192 31.5857 14.5585 31.0981 13.975 31.0981ZM14.8657 32.1343C14.8657 32.6219 14.4664 33.0181 13.975 33.0181C13.4835 33.0181 13.0842 32.6219 13.0842 32.1343C13.0842 31.6467 13.4835 31.2505 13.975 31.2505C14.4664 31.2809 14.8657 31.6771 14.8657 32.1343Z" fill="black"/>
<path d="M14.2821 32.3171C14.2514 32.439 14.1593 32.5305 14.0057 32.5305C13.7907 32.5305 13.6679 32.3476 13.6679 32.1343C13.6679 31.9209 13.7907 31.7686 14.0057 31.7686C14.1593 31.7686 14.2514 31.86 14.2821 31.9819H14.4357C14.405 31.7381 14.2207 31.6162 14.0057 31.6162C13.6986 31.6162 13.5143 31.8295 13.5143 32.1343C13.5143 32.439 13.6986 32.6524 14.0057 32.6524C14.2207 32.6524 14.405 32.5 14.4357 32.2867H14.2821V32.3171Z" fill="black"/>
<path d="M32.5571 33.5971C31.9735 33.5971 31.5128 34.0543 31.5128 34.6333C31.5128 35.2124 31.9735 35.6695 32.5571 35.6695C33.1407 35.6695 33.6014 35.2124 33.6014 34.6333C33.6014 34.0543 33.1407 33.5971 32.5571 33.5971ZM33.4171 34.6638C33.4171 35.1514 33.0178 35.5476 32.5264 35.5476C32.035 35.5476 31.6357 35.1514 31.6357 34.6638C31.6357 34.1762 32.035 33.78 32.5264 33.78C33.0178 33.78 33.4171 34.1762 33.4171 34.6638Z" fill="black"/>
<path d="M32.3728 34.6028V34.2981H32.5878C32.68 34.2981 32.8028 34.3286 32.8028 34.4505C32.8028 34.6028 32.68 34.6028 32.5571 34.6028H32.3728ZM32.3728 34.7248H32.5571L32.8335 35.1514H32.9871L32.7107 34.7248C32.8642 34.6943 32.9564 34.6333 32.9564 34.4505C32.9564 34.2676 32.8335 34.1762 32.6185 34.1762H32.2192V35.1514H32.3728V34.7248Z" fill="black"/>
</g>
<defs>
<clipPath id="clip0_45_458">
<rect width="43" height="48" fill="white" transform="translate(0 0.5)"/>
</clipPath>
</defs>
</svg>
