<svg width="33" height="32" viewBox="0 0 33 32" fill="none" xmlns="http://www.w3.org/2000/svg">
<path d="M16.5001 29.3333C29 31.4999 29.8334 23.3637 29.8334 15.9999C29.8334 8.63615 26 -6.24657e-05 16.5001 2.49993C9.13628 2.49993 2 10.1361 2 17.4999C2 24.8226 8.92206 26.9759 16.3745 29.2942L16.5001 29.3333Z" fill="#E2434B"/>
<path d="M20.22 19.3697C20.5933 19.7432 20.5933 20.3477 20.22 20.7202C20.1314 20.809 20.0262 20.8794 19.9103 20.9274C19.7944 20.9755 19.6701 21.0001 19.5447 21C19.3003 21 19.0558 20.9064 18.8696 20.7202L16 17.8504L13.1305 20.7202C13.0419 20.809 12.9367 20.8795 12.8208 20.9275C12.7049 20.9755 12.5807 21.0001 12.4553 21C12.3299 21.0001 12.2056 20.9755 12.0898 20.9275C11.9739 20.8795 11.8686 20.809 11.78 20.7202C11.4067 20.3478 11.4067 19.7432 11.78 19.3697L14.6498 16.5001L11.78 13.6305C11.4067 13.257 11.4067 12.6525 11.78 12.28C12.1535 11.9067 12.757 11.9067 13.1305 12.28L16 15.1498L18.8696 12.28C19.2431 11.9067 19.8465 11.9067 20.22 12.28C20.5933 12.6524 20.5933 13.257 20.22 13.6305L17.3503 16.5001L20.22 19.3697Z" fill="#FAFAFA"/>
</svg>
