<svg width="46" height="21" viewBox="0 0 46 21" fill="none" xmlns="http://www.w3.org/2000/svg">
<g clip-path="url(#clip0_370_356)">
<path d="M18.223 20.4899C16.6535 20.4055 15.4823 19.7602 14.7974 18.6023C14.3378 17.825 14.198 16.8027 14.4082 15.7582C14.6412 14.6007 15.4322 13.5578 16.6461 12.8076C17.3437 12.3762 17.9408 12.1085 19.1565 11.6814C19.4622 11.5741 19.726 11.4753 19.743 11.4615C19.7674 11.4422 19.7709 11.3737 19.7587 11.1515C19.7237 10.5192 19.8293 9.53415 20.008 8.82329C20.3086 7.62702 20.8871 6.66197 21.6548 6.07659C22.2059 5.656 22.9283 5.33976 23.6475 5.20416C24.0447 5.12946 24.7099 5.12969 25.0836 5.20485C26.6851 5.52707 27.584 6.76056 27.23 8.15034C27.1555 8.44338 26.92 8.92372 26.7206 9.1894C26.2097 9.87016 25.4413 10.4755 24.3562 11.0515C24.2198 11.1241 23.7731 11.3434 23.3639 11.5392C22.9548 11.7348 22.6072 11.9078 22.5911 11.9239C22.5684 11.9467 22.5741 12.0131 22.6183 12.2365C22.8218 13.2693 23.1641 14.142 23.7485 15.1179C23.9808 15.5063 24.3021 15.996 24.3387 16.0188C24.3916 16.0514 24.6078 15.7023 24.7488 15.3569C24.9231 14.9294 25.0229 14.364 24.9737 14.0832C24.9383 13.8821 24.8283 13.6697 24.688 13.5325C24.6236 13.4691 24.5703 13.4091 24.5701 13.3992C24.5698 13.3895 25.1145 13.384 25.7808 13.3875L26.9922 13.3937L26.9853 13.5472C26.9759 13.757 26.8979 14.2045 26.8158 14.5231C26.5842 15.4187 26.1476 16.1847 25.393 17.0213C25.304 17.1199 25.2311 17.2167 25.2311 17.2364C25.2311 17.2562 25.3562 17.3934 25.5089 17.5414C26.4627 18.4653 28.1523 19.5308 29.5279 20.0757C29.6616 20.1288 29.7706 20.1828 29.7701 20.1957C29.7697 20.2113 28.9755 20.2215 27.4492 20.2256L25.129 20.2316L24.9969 20.1573C24.7274 20.0059 24.1305 19.5239 23.5571 18.9944C23.4357 18.8822 23.3207 18.7905 23.3016 18.7905C23.2825 18.7905 23.1475 18.8689 23.0021 18.9647C22.2572 19.4557 21.3668 19.8967 20.6138 20.1477C19.7573 20.4334 19.0503 20.5343 18.223 20.4899ZM20.1766 18.4812C20.5239 18.4194 20.9505 18.2934 21.3429 18.1369C21.7374 17.9797 22.2264 17.7393 22.2438 17.6938C22.2507 17.6759 22.1603 17.5249 22.0433 17.358C21.5035 16.5895 20.9269 15.5086 20.5393 14.5391C20.3965 14.1818 20.1297 13.3902 20.0786 13.1733C20.0625 13.1041 20.0333 13.0413 20.0138 13.0338C19.9597 13.0131 19.5165 13.2491 19.1335 13.5028C17.7724 14.4045 17.1199 15.5051 17.2648 16.6552C17.3292 17.1663 17.4911 17.5389 17.7857 17.8535C18.3304 18.435 19.1818 18.6586 20.1766 18.4812ZM22.4869 10.484C22.9906 10.1894 23.7897 9.47393 24.2366 8.91774C24.8086 8.20596 25.1126 7.54176 25.1129 7.00304C25.1129 6.69506 25.0692 6.55717 24.9266 6.41467C24.7846 6.2731 24.6246 6.21449 24.3801 6.21426C23.6547 6.21426 22.8701 7.07474 22.5283 8.24549C22.3558 8.8357 22.314 9.15332 22.3128 9.8743C22.3119 10.425 22.3209 10.5475 22.3623 10.5475C22.3713 10.5475 22.4274 10.519 22.4869 10.484ZM34.4844 20.4761C33.2891 20.3559 32.5014 20.1773 31.6127 19.8257C30.4033 19.3467 29.6482 18.7535 29.0104 17.7816C28.8195 17.4906 28.5132 16.8797 28.3894 16.5421C27.8363 15.0379 27.7148 13.1441 28.0444 11.1685C28.3782 9.16895 29.1383 7.24183 30.1871 5.73553C30.8675 4.75875 31.8797 3.73003 32.9246 2.95321C34.65 1.67076 36.6361 0.882444 38.8425 0.605269C39.5118 0.521151 39.8867 0.499547 40.6772 0.500007C41.873 0.500697 42.7838 0.591709 43.9864 0.830502C44.7537 0.983109 45.9759 1.31268 45.9994 1.37359C46.0113 1.40439 45.2369 3.88448 45.205 3.9178C45.1951 3.92815 45.0762 3.84885 44.9412 3.74083C43.8535 2.87438 42.7263 2.34692 41.5864 2.17156C41.2223 2.11548 40.538 2.11479 40.1811 2.17018C38.583 2.41748 37.1014 3.43769 35.786 5.19657C35.3587 5.76793 34.8879 6.53372 34.5217 7.25263C34.0256 8.22711 33.6845 9.08851 33.3395 10.2404C32.2406 13.9053 32.1849 16.4658 33.1739 17.8519C33.5812 18.423 34.1767 18.7869 34.9322 18.9259C35.366 19.0059 36.419 18.9574 36.5238 18.8528C36.5406 18.8363 37.0547 17.2291 37.666 15.2813C38.6707 12.0818 38.7792 11.721 38.7907 11.5396C38.8059 11.296 38.7606 11.0784 38.6509 10.8688C38.5513 10.6782 38.2882 10.4197 38.0713 10.2995C37.9777 10.2475 37.9009 10.197 37.9006 10.1873C37.9004 10.1777 39.5858 10.1696 41.6464 10.1696C43.7067 10.1696 45.3926 10.1777 45.3924 10.1873C45.3924 10.197 45.3011 10.2469 45.1896 10.2976C44.6063 10.5642 44.1835 10.9637 43.9321 11.4863C43.8776 11.5994 43.4061 13.063 42.698 15.3167L41.5519 18.9641L41.2207 19.1226C39.8717 19.7696 38.2215 20.2355 36.5754 20.4343C36.2729 20.471 34.7377 20.5016 34.4847 20.4761H34.4844ZM0.000763047 20.2095C-0.00682695 20.1976 0.0430831 20.1555 0.111393 20.1162C0.518493 19.882 0.975503 19.3961 1.16916 18.9912C1.22528 18.874 6.36417 2.51929 6.47756 2.09663C6.49757 2.02263 6.51436 1.86634 6.51459 1.74959C6.5162 1.39289 6.40534 1.13572 6.14429 0.888879C6.07299 0.821539 6.0148 0.756497 6.0148 0.744316C6.0148 0.71191 14.9883 0.714668 15.3997 0.747304C16.2907 0.817861 17.1827 1.05459 17.8649 1.40117C19.0296 1.99298 19.7269 2.89115 19.9413 4.07547C20.0011 4.40504 20.0126 5.1382 19.9636 5.49305C19.764 6.9396 19.108 8.47394 18.2149 9.58402C16.7682 11.3822 14.4022 12.532 11.4985 12.8483C10.578 12.9485 9.41811 12.9738 8.59678 12.9113C8.35942 12.8931 8.16024 12.8832 8.15426 12.8892C8.12505 12.9186 6.2724 18.8586 6.25124 18.9912C6.18592 19.4 6.3966 19.8597 6.75977 20.1006C6.83153 20.1481 6.88397 20.1971 6.87661 20.209C6.85821 20.2387 0.018933 20.2389 0.000533047 20.2093L0.000763047 20.2095ZM10.1865 11.387C10.8611 11.2675 11.4564 11.0179 12.0307 10.6141C12.3097 10.4181 12.8828 9.84603 13.1193 9.52771C13.7108 8.73181 14.146 7.79273 14.497 6.55579C14.7205 5.76747 14.8158 5.16693 14.8155 4.548C14.8155 4.07087 14.7723 3.78588 14.6522 3.46619C14.474 2.99182 14.111 2.61697 13.6499 2.43081C13.2538 2.27084 12.9157 2.22879 12.1024 2.23821L11.4893 2.2451L10.064 6.7801C9.28034 9.27444 8.64324 11.3273 8.64853 11.342C8.65405 11.3567 8.75249 11.3815 8.86703 11.3971C8.98203 11.4128 9.09174 11.4293 9.11129 11.4341C9.20053 11.456 9.99495 11.421 10.1865 11.387Z" fill="#165EAA"/>
</g>
<defs>
<clipPath id="clip0_370_356">
<rect width="46" height="20" fill="white" transform="translate(0 0.5)"/>
</clipPath>
</defs>
</svg>
