<svg width="33" height="32" viewBox="0 0 33 32" fill="none" xmlns="http://www.w3.org/2000/svg">
<path d="M16.5001 29.3333C29 31.4999 29.8334 23.3637 29.8334 15.9999C29.8334 8.63615 26 -6.24657e-05 16.5001 2.49993C9.13628 2.49993 2 10.1361 2 17.4999C2 24.8226 8.92206 26.9759 16.3745 29.2942L16.5001 29.3333Z" fill="#B4C95F"/>
<path d="M15.7266 21C15.4614 20.9998 15.2073 20.8943 15.0199 20.7067L10.9399 16.64C10.5532 16.2533 10.5532 15.6133 10.9399 15.2267C11.3266 14.84 11.9666 14.84 12.3532 15.2267L15.7132 18.5733L21.9799 12.08C22.3666 11.68 22.9932 11.6667 23.3932 12.0533C23.7932 12.44 23.8066 13.0667 23.4199 13.4667L16.4466 20.6933C16.3563 20.7905 16.247 20.8679 16.1253 20.9207C16.0037 20.9734 15.8725 21.0005 15.7399 21H15.7266Z" fill="white"/>
</svg>
