<svg width="852" height="537" viewBox="0 0 852 537" fill="none" xmlns="http://www.w3.org/2000/svg">
<path d="M2.63604 95.092C1.37483 68.1186 21.8485 45.0036 48.7725 42.9415C328.977 21.481 504.271 12.6987 779.983 8.63011C806.925 8.23253 829.37 29.3175 830.629 56.2334L847.957 426.843C849.197 453.358 829.347 476.237 802.941 478.938C461.853 513.818 327.749 527.31 71.2891 531.012C44.4042 531.4 22.0513 510.326 20.7955 483.468L2.63604 95.092Z" fill="#B4C95F"/>
<path d="M17.1361 61.8016C17.8365 35.3787 39.1115 14.1454 65.5314 13.3371C340.396 4.92723 512.154 4.32445 781.503 13.1709C808.415 14.0548 829.815 36.1569 829.815 63.0831V437.511C829.815 464.025 808.961 485.938 782.49 487.443C447.91 506.457 316.209 513.698 65.2841 505.349C38.9617 504.474 17.8607 483.221 17.1491 456.894C15.7649 405.678 13.6533 326.538 12.9387 294.28C12.1564 258.962 15.2812 131.782 17.1361 61.8016Z" fill="white"/>
</svg>
