<svg width="853" height="303" viewBox="0 0 853 303" fill="none" xmlns="http://www.w3.org/2000/svg">
<path d="M4.65601 74.216C2.28928 47.0519 22.2863 24.3412 49.501 23.1999C329.007 11.4783 504.169 6.7528 779.221 4.81836C806.485 4.62662 830.284 26.2255 832.648 53.357L847.138 219.664C849.482 246.567 829.802 269.157 802.891 270.676C463.129 289.861 328.98 297.295 73.3522 299.055C46.1208 299.242 22.3807 277.65 20.0196 250.552L4.65601 74.216Z" fill="#B4C95F"/>
<path d="M16.4043 55.1434C17.5773 28.8896 39.0858 8.17093 65.3619 7.71589C340.174 2.9568 511.899 2.6095 780.926 7.60159C808.145 8.10668 830 30.3341 830 57.5584V225.987C830 252.977 808.414 275.101 781.438 275.969C447.689 286.699 316.021 290.779 65.2872 286.056C39.0386 285.562 17.6192 264.787 16.3789 238.563C15.1195 211.936 13.6869 181.043 13.1233 166.649C12.46 149.708 14.6056 95.4045 16.4043 55.1434Z" fill="white"/>
</svg>
