<svg width="464" height="423" viewBox="0 0 464 423" fill="none" xmlns="http://www.w3.org/2000/svg">
<path d="M1.83648 83.1612C0.928659 56.4474 21.1627 33.086 47.7779 30.2858C180.857 16.2848 271.613 10.077 402.658 7.30389C429.264 6.74088 450.867 27.379 451.772 54.0098L461.09 328.22C461.976 354.273 442.639 377.258 416.778 381.002C255.324 404.372 181.701 414.327 60.546 417.307C34.023 417.959 12.5124 397.315 11.6102 370.767L1.83648 83.1612Z" fill="#B4C95F"/>
<path d="M9.15563 58.0566C9.62346 31.744 30.4423 10.3642 56.7356 9.25234C185.444 3.80941 273.371 3.42805 399.567 9.05773C426.147 10.2435 447 32.221 447 58.8275V351.796C447 377.801 426.978 399.516 401.041 401.386C244.901 412.64 173.28 407.598 56.36 400.528C30.248 398.949 9.64172 377.612 9.16163 351.456C8.42348 311.243 7.42261 255.883 7.06639 232.278C6.66834 205.9 8.1485 114.702 9.15563 58.0566Z" fill="white"/>
</svg>
