<svg width="369" height="895" viewBox="0 0 369 895" fill="none" xmlns="http://www.w3.org/2000/svg">
<path d="M1.92865 79.9853C1.06823 54.6474 19.3002 32.017 44.3838 27.8356C138.518 12.1438 205.408 7.20306 298.603 11.1661C323.643 12.2309 343.019 32.3522 343.872 57.4813L365.533 695.349C366.338 719.047 350.359 740.588 327.345 746.865C211.696 778.407 156.052 791.967 69.2138 789.47C44.3592 788.755 25.3123 768.596 24.4661 743.675L1.92865 79.9853Z" fill="#B4C95F"/>
<path d="M14.9735 56.3129C15.1556 31.1694 34.0074 10.0009 59.0165 7.39789C150.137 -2.08628 214.967 -2.72025 304.489 7.05856C329.416 9.78144 348 31.0863 348 56.1615V722.702C348 746.308 331.467 766.849 308.231 771.017C195.857 791.176 141.456 782.55 57.8141 769.601C33.3831 765.819 15.1655 745.007 14.9863 720.286C14.4507 646.418 13.3827 497.746 13.0505 441.585C12.6991 382.157 14.2705 153.389 14.9735 56.3129Z" fill="white"/>
</svg>
